<?xml version="1.0" standalone="no"?><!DOCTYPE svg PUBLIC "-//W3C//DTD SVG 1.1//EN" "http://www.w3.org/Graphics/SVG/1.1/DTD/svg11.dtd"><svg t="1616656888720" class="icon" viewBox="0 0 1024 1024" version="1.1" xmlns="http://www.w3.org/2000/svg" p-id="2189" xmlns:xlink="http://www.w3.org/1999/xlink" width="200" height="200"><defs><style type="text/css"></style></defs><path d="M125.470843 562.706506l173.956627 173.956627a148.048193 148.048193 0 0 0 209.73494 0L896.925301 348.53012a61.686747 61.686747 0 0 0-4.688193-91.543132 63.660723 63.660723 0 0 0-84.634216 6.292048l-368.64 368.886747a49.349398 49.349398 0 0 1-69.829398 0L216.397108 479.306024a63.660723 63.660723 0 0 0-84.017349-6.785542 61.686747 61.686747 0 0 0-6.908916 90.186024z m45.154699-41.823614a12.337349 12.337349 0 0 1 17.395663 0L351.614458 684.476145a74.024096 74.024096 0 0 0 104.744096 0l379.496868-379.496868a12.337349 12.337349 0 1 1 17.395662 17.395663L473.754217 701.871807a98.698795 98.698795 0 0 1-139.535422 0L170.625542 538.401928a12.337349 12.337349 0 0 1 0-17.519036z" fill="#ffffff" p-id="2190"></path></svg>